<svg width="20" height="21" viewBox="0 0 20 21" fill="none" xmlns="http://www.w3.org/2000/svg">
<path d="M9.28661 0.445072C9.06233 0.567407 8.89922 1.07714 8.81766 1.89271C8.59338 3.85008 7.9817 5.19577 6.71757 6.56185C5.39227 7.9891 4.04657 8.70272 2.06882 9.00856C0.437675 9.27362 0.131836 9.45713 0.131836 10.2319C0.131836 10.9863 0.376507 11.129 2.12998 11.4145C5.80005 12.0262 8.10404 14.3913 8.77688 18.2653C9.04194 19.8149 9.28661 20.2227 9.91868 20.2227C10.5507 20.2227 10.7954 19.8149 11.0605 18.2857C11.7333 14.3505 14.0169 12.0466 17.8297 11.3737C19.5016 11.0883 19.7055 10.9659 19.7055 10.2523C19.7055 9.45713 19.3997 9.27362 17.7685 9.00856C15.7908 8.70272 14.4451 7.9891 13.1198 6.56185C11.8557 5.19577 11.244 3.85008 11.0197 1.89271C10.8566 0.383904 10.2653 -0.125828 9.28661 0.445072Z" fill="#FFCC00"/>
</svg>
