<svg width="100" height="104" viewBox="0 0 100 104" fill="none" xmlns="http://www.w3.org/2000/svg">
<path d="M30.2281 0.333892C30.065 0.537785 29.8611 1.25141 29.7796 1.92425C29.3922 5.51276 26.66 8.26531 22.9696 8.77505C21.5831 8.97894 21.0938 9.28478 21.0938 9.9984C21.0938 10.6101 21.6443 10.9567 22.9084 11.0994C24.3153 11.2625 26.2115 12.0985 27.2513 13.016C28.6989 14.2801 29.8611 16.7472 29.8611 18.5619C29.8611 19.3163 30.3913 19.9688 30.9825 19.9688C31.635 19.9688 31.9816 19.3775 32.1243 18.0522C32.4913 14.3617 35.3662 11.5072 39.1586 11.079C40.4024 10.9159 40.9529 10.4266 40.749 9.63139C40.6063 9.10127 40.4228 9.01972 38.6693 8.75466C35.2031 8.18376 32.4913 5.41082 32.1651 2.08737C32.104 1.43491 31.9204 0.700899 31.7777 0.435838C31.4311 -0.0942826 30.6563 -0.15545 30.2281 0.333892Z" fill="#FFCC00"/>
<path d="M58.8336 15.2805C47.2729 21.0506 44.8873 22.3148 44.4388 22.9061C44.0921 23.3546 43.0523 26.1276 41.5435 30.6132L39.1783 37.6067L39.0968 41.6846L39.0152 45.7624L35.0597 49.7383L31.1246 53.7142L28.1477 59.6679C26.5166 62.9506 25.1709 65.7235 25.1709 65.8255C25.1709 66.274 33.0208 67.9867 38.1181 68.6392C42.0328 69.1489 53.5324 69.1489 57.5898 68.6392C63.8086 67.8644 72.6779 65.7031 72.6779 64.9487C72.6779 64.8264 72.0662 62.869 71.3118 60.6058L69.9457 56.4872L71.8419 52.6336C74.8799 46.4761 74.9207 46.6596 69.1913 40.8486L65.1339 36.7708V34.1813V31.5919L71.5361 23.0488C76.1848 16.8301 77.9995 14.2814 78.1014 13.7513C78.6519 10.7745 76.7557 8.34813 73.8808 8.34813C72.7187 8.34813 72.2701 8.55202 58.8336 15.2805Z" fill="url(#paint0_linear_304_16)"/>
<path d="M89.4592 33.4651C89.3573 33.6079 89.1534 34.403 89.031 35.239C88.4193 38.9498 85.8095 41.5189 82.1598 41.9675C80.7122 42.1306 80.4268 42.3345 80.4268 43.252C80.4268 43.9452 80.7734 44.1287 82.3433 44.3122C85.7687 44.6996 88.4397 47.3706 89.0106 50.9795C89.2961 52.733 89.4592 52.998 90.2136 52.998C90.968 52.998 91.1107 52.7534 91.3962 50.9795C91.9875 47.3706 94.6789 44.6996 98.0839 44.3122C99.6538 44.1287 100 43.9452 100 43.252C100 42.3345 99.715 42.1306 98.2266 41.9471C96.3712 41.7228 94.5769 40.8257 93.4147 39.5411C92.2525 38.2566 91.702 37.0536 91.3962 35.2186C91.1107 33.4651 90.968 33.2205 90.2136 33.2205C89.9078 33.2205 89.5611 33.3428 89.4592 33.4651Z" fill="#FFCC00"/>
<path d="M11.2866 34.4451C11.0623 34.5674 10.8992 35.0771 10.8177 35.8927C10.5934 37.8501 9.9817 39.1958 8.71757 40.5619C7.39227 41.9891 6.04657 42.7027 4.06882 43.0086C2.43767 43.2736 2.13184 43.4571 2.13184 44.2319C2.13184 44.9863 2.37651 45.129 4.12998 45.4145C7.80005 46.0262 10.104 48.3913 10.7769 52.2653C11.0419 53.8149 11.2866 54.2227 11.9187 54.2227C12.5507 54.2227 12.7954 53.8149 13.0605 52.2857C13.7333 48.3505 16.0169 46.0466 19.8297 45.3737C21.5016 45.0883 21.7055 44.9659 21.7055 44.2523C21.7055 43.4571 21.3997 43.2736 19.7685 43.0086C17.7908 42.7027 16.4451 41.9891 15.1198 40.5619C13.8557 39.1958 13.244 37.8501 13.0197 35.8927C12.8566 34.3839 12.2653 33.8742 11.2866 34.4451Z" fill="#FFCC00"/>
<path d="M17.7702 65.0289C8.45229 68.3116 2.47823 73.0215 0.582032 78.5877C-0.111203 80.6267 -0.19276 83.3996 0.378139 85.2958C3.19186 94.6749 16.9342 101.424 37.4458 103.503C41.8499 103.932 52.8397 103.993 57.0807 103.605C76.267 101.811 89.6627 96.1225 94.1483 87.8649C95.861 84.7045 96.1057 81.218 94.8008 78.0168C93.1085 73.7963 89.051 70.065 83.077 67.1902C80.5079 65.9668 77.368 64.7434 77.368 64.9881C77.368 65.0697 78.469 68.4339 79.8147 72.471C81.1604 76.508 82.3634 80.3412 82.4857 81.0141C82.7508 82.5229 82.4653 84.3987 81.7109 86.0094C81.0177 87.4775 79.1215 89.3737 77.7146 90.0057C74.7582 91.3718 64.4412 93.737 57.7943 94.5933C53.4718 95.1642 45.9074 95.3477 41.8499 95.0215C32.899 94.2467 19.9518 91.3922 17.0158 89.5368C14.1817 87.7425 12.5913 84.1744 13.1622 80.8713C13.3661 79.648 13.9982 78.2207 17.2401 71.7166C19.3605 67.4756 20.9713 64.0094 20.8286 64.0298C20.7062 64.0298 19.3198 64.4784 17.7702 65.0289Z" fill="url(#paint1_linear_304_16)"/>
<path d="M72.6787 69.5353C60.8733 73.7762 45.3979 74.6937 31.6963 71.9616C30.0652 71.6354 27.6185 71.0237 26.2932 70.6159C24.9475 70.2081 23.6833 69.8207 23.4998 69.7799C23.2144 69.6984 22.5823 70.8198 20.2987 75.4074C17.7501 80.5047 17.4238 81.2387 17.4238 82.1562C17.4238 83.9097 18.219 85.2962 19.6666 86.0302C21.5425 86.9681 29.3515 88.8847 34.9586 89.7818C40.3006 90.6381 42.5842 90.8216 47.9058 90.8013C53.2478 90.8013 55.409 90.6381 60.6491 89.7818C66.3988 88.8643 74.4322 86.8661 76.043 85.969C77.3071 85.2554 78.0411 84.032 78.1227 82.5028C78.1838 81.361 78.0207 80.7086 76.1857 75.2443C75.0847 71.9412 74.106 69.209 74.004 69.1886C73.8817 69.1683 73.2904 69.311 72.6787 69.5353Z" fill="url(#paint2_linear_304_16)"/>
<defs>
<linearGradient id="paint0_linear_304_16" x1="51.6837" y1="8.34813" x2="51.6837" y2="69.0215" gradientUnits="userSpaceOnUse">
<stop stop-color="white"/>
<stop offset="1" stop-color="#D1D0D0"/>
</linearGradient>
<linearGradient id="paint1_linear_304_16" x1="47.8156" y1="64.0297" x2="47.8156" y2="103.863" gradientUnits="userSpaceOnUse">
<stop stop-color="white"/>
<stop offset="1" stop-color="#D1D0D0"/>
</linearGradient>
<linearGradient id="paint2_linear_304_16" x1="47.7783" y1="69.1867" x2="47.7783" y2="90.8027" gradientUnits="userSpaceOnUse">
<stop stop-color="white"/>
<stop offset="1" stop-color="#D1D0D0"/>
</linearGradient>
</defs>
</svg>
